<mxfile host="Electron" modified="2024-03-03T20:48:32.781Z" agent="Mozilla/5.0 (Windows NT 10.0; Win64; x64) AppleWebKit/537.36 (KHTML, like Gecko) draw.io/22.1.2 Chrome/114.0.5735.289 Electron/25.9.4 Safari/537.36" etag="vexkiNQLbNgqSMJtpXRW" version="22.1.2" type="device">
  <diagram name="Страница — 1" id="DRkYR0OxPjSSoUSauhyg">
    <mxGraphModel dx="2029" dy="1231" grid="1" gridSize="10" guides="1" tooltips="1" connect="1" arrows="1" fold="1" page="1" pageScale="1" pageWidth="827" pageHeight="1169" math="0" shadow="0">
      <root>
        <mxCell id="0" />
        <mxCell id="1" parent="0" />
        <mxCell id="0QM8M_4ENNdiWnbFHsw6-1" value="Начало" style="ellipse;whiteSpace=wrap;html=1;" vertex="1" parent="1">
          <mxGeometry x="370" y="30" width="80" height="40" as="geometry" />
        </mxCell>
        <mxCell id="0QM8M_4ENNdiWnbFHsw6-2" value="" style="endArrow=classic;html=1;rounded=0;exitX=0.5;exitY=1;exitDx=0;exitDy=0;" edge="1" parent="1" source="0QM8M_4ENNdiWnbFHsw6-1">
          <mxGeometry width="50" height="50" relative="1" as="geometry">
            <mxPoint x="414" y="70" as="sourcePoint" />
            <mxPoint x="410" y="90" as="targetPoint" />
          </mxGeometry>
        </mxCell>
        <mxCell id="0QM8M_4ENNdiWnbFHsw6-3" value="K" style="rhombus;whiteSpace=wrap;html=1;" vertex="1" parent="1">
          <mxGeometry x="370" y="90" width="80" height="40" as="geometry" />
        </mxCell>
        <mxCell id="0QM8M_4ENNdiWnbFHsw6-5" value="" style="endArrow=none;html=1;rounded=0;entryX=0.5;entryY=1;entryDx=0;entryDy=0;" edge="1" parent="1" target="0QM8M_4ENNdiWnbFHsw6-3">
          <mxGeometry width="50" height="50" relative="1" as="geometry">
            <mxPoint x="90" y="150" as="sourcePoint" />
            <mxPoint x="410" y="150" as="targetPoint" />
            <Array as="points">
              <mxPoint x="410" y="150" />
            </Array>
          </mxGeometry>
        </mxCell>
        <mxCell id="0QM8M_4ENNdiWnbFHsw6-6" value="" style="endArrow=none;html=1;rounded=0;" edge="1" parent="1">
          <mxGeometry width="50" height="50" relative="1" as="geometry">
            <mxPoint x="410" y="150" as="sourcePoint" />
            <mxPoint x="1290" y="240" as="targetPoint" />
            <Array as="points">
              <mxPoint x="1220" y="150" />
              <mxPoint x="1290" y="150" />
            </Array>
          </mxGeometry>
        </mxCell>
        <mxCell id="0QM8M_4ENNdiWnbFHsw6-7" value="" style="endArrow=classic;html=1;rounded=0;" edge="1" parent="1">
          <mxGeometry width="50" height="50" relative="1" as="geometry">
            <mxPoint x="90" y="150" as="sourcePoint" />
            <mxPoint x="90" y="190" as="targetPoint" />
          </mxGeometry>
        </mxCell>
        <mxCell id="0QM8M_4ENNdiWnbFHsw6-8" value="wy -= 10" style="rounded=0;whiteSpace=wrap;html=1;" vertex="1" parent="1">
          <mxGeometry x="50" y="190" width="80" height="40" as="geometry" />
        </mxCell>
        <mxCell id="0QM8M_4ENNdiWnbFHsw6-15" value="" style="endArrow=classic;html=1;rounded=0;" edge="1" parent="1">
          <mxGeometry width="50" height="50" relative="1" as="geometry">
            <mxPoint x="180" y="150" as="sourcePoint" />
            <mxPoint x="180" y="190" as="targetPoint" />
          </mxGeometry>
        </mxCell>
        <mxCell id="0QM8M_4ENNdiWnbFHsw6-16" value="&lt;span style=&quot;color: rgb(0, 0, 0); font-family: Helvetica; font-size: 12px; font-style: normal; font-variant-ligatures: normal; font-variant-caps: normal; font-weight: 400; letter-spacing: normal; orphans: 2; text-align: center; text-indent: 0px; text-transform: none; widows: 2; word-spacing: 0px; -webkit-text-stroke-width: 0px; background-color: rgb(251, 251, 251); text-decoration-thickness: initial; text-decoration-style: initial; text-decoration-color: initial; float: none; display: inline !important;&quot;&gt;wy += 10&lt;/span&gt;" style="rounded=0;whiteSpace=wrap;html=1;" vertex="1" parent="1">
          <mxGeometry x="139" y="190" width="80" height="40" as="geometry" />
        </mxCell>
        <mxCell id="0QM8M_4ENNdiWnbFHsw6-17" value="" style="endArrow=classic;html=1;rounded=0;" edge="1" parent="1">
          <mxGeometry width="50" height="50" relative="1" as="geometry">
            <mxPoint x="270" y="150" as="sourcePoint" />
            <mxPoint x="270" y="190" as="targetPoint" />
          </mxGeometry>
        </mxCell>
        <mxCell id="0QM8M_4ENNdiWnbFHsw6-18" value="wx += 10" style="rounded=0;whiteSpace=wrap;html=1;" vertex="1" parent="1">
          <mxGeometry x="230" y="190" width="80" height="40" as="geometry" />
        </mxCell>
        <mxCell id="0QM8M_4ENNdiWnbFHsw6-19" value="" style="endArrow=classic;html=1;rounded=0;" edge="1" parent="1">
          <mxGeometry width="50" height="50" relative="1" as="geometry">
            <mxPoint x="360" y="150" as="sourcePoint" />
            <mxPoint x="360" y="190" as="targetPoint" />
          </mxGeometry>
        </mxCell>
        <mxCell id="0QM8M_4ENNdiWnbFHsw6-20" value="wx -= 10" style="rounded=0;whiteSpace=wrap;html=1;" vertex="1" parent="1">
          <mxGeometry x="320" y="190" width="80" height="40" as="geometry" />
        </mxCell>
        <mxCell id="0QM8M_4ENNdiWnbFHsw6-21" value="" style="endArrow=classic;html=1;rounded=0;" edge="1" parent="1">
          <mxGeometry width="50" height="50" relative="1" as="geometry">
            <mxPoint x="450" y="150" as="sourcePoint" />
            <mxPoint x="450" y="190" as="targetPoint" />
          </mxGeometry>
        </mxCell>
        <mxCell id="0QM8M_4ENNdiWnbFHsw6-22" value="halt(1)" style="rounded=0;whiteSpace=wrap;html=1;" vertex="1" parent="1">
          <mxGeometry x="410" y="190" width="80" height="40" as="geometry" />
        </mxCell>
        <mxCell id="0QM8M_4ENNdiWnbFHsw6-23" value="m &amp;lt; 500" style="rhombus;whiteSpace=wrap;html=1;" vertex="1" parent="1">
          <mxGeometry x="500" y="190" width="80" height="40" as="geometry" />
        </mxCell>
        <mxCell id="0QM8M_4ENNdiWnbFHsw6-24" value="" style="endArrow=classic;html=1;rounded=0;" edge="1" parent="1">
          <mxGeometry width="50" height="50" relative="1" as="geometry">
            <mxPoint x="539.73" y="150" as="sourcePoint" />
            <mxPoint x="539.73" y="190" as="targetPoint" />
          </mxGeometry>
        </mxCell>
        <mxCell id="0QM8M_4ENNdiWnbFHsw6-25" value="" style="endArrow=classic;html=1;rounded=0;exitX=1;exitY=0.5;exitDx=0;exitDy=0;" edge="1" parent="1" source="0QM8M_4ENNdiWnbFHsw6-23">
          <mxGeometry width="50" height="50" relative="1" as="geometry">
            <mxPoint x="580" y="200" as="sourcePoint" />
            <mxPoint x="600" y="210" as="targetPoint" />
          </mxGeometry>
        </mxCell>
        <mxCell id="0QM8M_4ENNdiWnbFHsw6-27" value="m += 10" style="rounded=0;whiteSpace=wrap;html=1;" vertex="1" parent="1">
          <mxGeometry x="600" y="190" width="80" height="40" as="geometry" />
        </mxCell>
        <mxCell id="0QM8M_4ENNdiWnbFHsw6-28" value="" style="endArrow=none;html=1;rounded=0;" edge="1" parent="1">
          <mxGeometry width="50" height="50" relative="1" as="geometry">
            <mxPoint x="680" y="210" as="sourcePoint" />
            <mxPoint x="690" y="150" as="targetPoint" />
            <Array as="points">
              <mxPoint x="690" y="210" />
            </Array>
          </mxGeometry>
        </mxCell>
        <mxCell id="0QM8M_4ENNdiWnbFHsw6-29" value="m &amp;gt; 20" style="rhombus;whiteSpace=wrap;html=1;" vertex="1" parent="1">
          <mxGeometry x="700" y="190" width="80" height="40" as="geometry" />
        </mxCell>
        <mxCell id="0QM8M_4ENNdiWnbFHsw6-30" value="" style="endArrow=classic;html=1;rounded=0;" edge="1" parent="1">
          <mxGeometry width="50" height="50" relative="1" as="geometry">
            <mxPoint x="739.73" y="150" as="sourcePoint" />
            <mxPoint x="739.73" y="190" as="targetPoint" />
          </mxGeometry>
        </mxCell>
        <mxCell id="0QM8M_4ENNdiWnbFHsw6-31" value="" style="endArrow=classic;html=1;rounded=0;exitX=1;exitY=0.5;exitDx=0;exitDy=0;" edge="1" parent="1" source="0QM8M_4ENNdiWnbFHsw6-29">
          <mxGeometry width="50" height="50" relative="1" as="geometry">
            <mxPoint x="780" y="200" as="sourcePoint" />
            <mxPoint x="800" y="210" as="targetPoint" />
          </mxGeometry>
        </mxCell>
        <mxCell id="0QM8M_4ENNdiWnbFHsw6-32" value="g -= 10" style="rounded=0;whiteSpace=wrap;html=1;" vertex="1" parent="1">
          <mxGeometry x="800" y="190" width="80" height="40" as="geometry" />
        </mxCell>
        <mxCell id="0QM8M_4ENNdiWnbFHsw6-33" value="" style="endArrow=none;html=1;rounded=0;" edge="1" parent="1">
          <mxGeometry width="50" height="50" relative="1" as="geometry">
            <mxPoint x="880" y="210" as="sourcePoint" />
            <mxPoint x="890" y="150" as="targetPoint" />
            <Array as="points">
              <mxPoint x="890" y="210" />
            </Array>
          </mxGeometry>
        </mxCell>
        <mxCell id="0QM8M_4ENNdiWnbFHsw6-34" value="g &amp;lt; 15" style="rhombus;whiteSpace=wrap;html=1;" vertex="1" parent="1">
          <mxGeometry x="900" y="190" width="80" height="40" as="geometry" />
        </mxCell>
        <mxCell id="0QM8M_4ENNdiWnbFHsw6-35" value="" style="endArrow=classic;html=1;rounded=0;" edge="1" parent="1">
          <mxGeometry width="50" height="50" relative="1" as="geometry">
            <mxPoint x="939.73" y="150" as="sourcePoint" />
            <mxPoint x="939.73" y="190" as="targetPoint" />
          </mxGeometry>
        </mxCell>
        <mxCell id="0QM8M_4ENNdiWnbFHsw6-36" value="" style="endArrow=classic;html=1;rounded=0;exitX=1;exitY=0.5;exitDx=0;exitDy=0;" edge="1" parent="1" source="0QM8M_4ENNdiWnbFHsw6-34">
          <mxGeometry width="50" height="50" relative="1" as="geometry">
            <mxPoint x="980" y="200" as="sourcePoint" />
            <mxPoint x="1000" y="210" as="targetPoint" />
          </mxGeometry>
        </mxCell>
        <mxCell id="0QM8M_4ENNdiWnbFHsw6-37" value="g += 1" style="rounded=0;whiteSpace=wrap;html=1;" vertex="1" parent="1">
          <mxGeometry x="1000" y="190" width="80" height="40" as="geometry" />
        </mxCell>
        <mxCell id="0QM8M_4ENNdiWnbFHsw6-38" value="" style="endArrow=none;html=1;rounded=0;" edge="1" parent="1">
          <mxGeometry width="50" height="50" relative="1" as="geometry">
            <mxPoint x="1080" y="210" as="sourcePoint" />
            <mxPoint x="1090" y="150" as="targetPoint" />
            <Array as="points">
              <mxPoint x="1090" y="210" />
            </Array>
          </mxGeometry>
        </mxCell>
        <mxCell id="0QM8M_4ENNdiWnbFHsw6-54" value="g &amp;gt; 2" style="rhombus;whiteSpace=wrap;html=1;" vertex="1" parent="1">
          <mxGeometry x="1100.5" y="190" width="80" height="40" as="geometry" />
        </mxCell>
        <mxCell id="0QM8M_4ENNdiWnbFHsw6-55" value="" style="endArrow=classic;html=1;rounded=0;" edge="1" parent="1">
          <mxGeometry width="50" height="50" relative="1" as="geometry">
            <mxPoint x="1140.23" y="150" as="sourcePoint" />
            <mxPoint x="1140.23" y="190" as="targetPoint" />
          </mxGeometry>
        </mxCell>
        <mxCell id="0QM8M_4ENNdiWnbFHsw6-56" value="" style="endArrow=classic;html=1;rounded=0;exitX=1;exitY=0.5;exitDx=0;exitDy=0;" edge="1" parent="1" source="0QM8M_4ENNdiWnbFHsw6-54">
          <mxGeometry width="50" height="50" relative="1" as="geometry">
            <mxPoint x="1180.5" y="200" as="sourcePoint" />
            <mxPoint x="1200.5" y="210" as="targetPoint" />
          </mxGeometry>
        </mxCell>
        <mxCell id="0QM8M_4ENNdiWnbFHsw6-57" value="g -= 1" style="rounded=0;whiteSpace=wrap;html=1;" vertex="1" parent="1">
          <mxGeometry x="1200.5" y="190" width="80" height="40" as="geometry" />
        </mxCell>
        <mxCell id="0QM8M_4ENNdiWnbFHsw6-58" value="" style="endArrow=none;html=1;rounded=0;" edge="1" parent="1">
          <mxGeometry width="50" height="50" relative="1" as="geometry">
            <mxPoint x="1280.5" y="210" as="sourcePoint" />
            <mxPoint x="1290" y="210" as="targetPoint" />
            <Array as="points">
              <mxPoint x="1290.5" y="210" />
            </Array>
          </mxGeometry>
        </mxCell>
        <mxCell id="0QM8M_4ENNdiWnbFHsw6-60" value="" style="endArrow=none;html=1;rounded=0;" edge="1" parent="1">
          <mxGeometry width="50" height="50" relative="1" as="geometry">
            <mxPoint x="1290" y="240" as="sourcePoint" />
            <mxPoint x="90" y="150" as="targetPoint" />
            <Array as="points">
              <mxPoint x="30" y="240" />
              <mxPoint x="30" y="150" />
            </Array>
          </mxGeometry>
        </mxCell>
        <mxCell id="0QM8M_4ENNdiWnbFHsw6-61" value="" style="endArrow=classic;html=1;rounded=0;entryX=0.5;entryY=0;entryDx=0;entryDy=0;" edge="1" parent="1" target="0QM8M_4ENNdiWnbFHsw6-63">
          <mxGeometry width="50" height="50" relative="1" as="geometry">
            <mxPoint x="450" y="110" as="sourcePoint" />
            <mxPoint x="1370" y="110" as="targetPoint" />
            <Array as="points">
              <mxPoint x="1330" y="110" />
              <mxPoint x="1370" y="110" />
            </Array>
          </mxGeometry>
        </mxCell>
        <mxCell id="0QM8M_4ENNdiWnbFHsw6-62" value="ris(wx-m,wy,wx+m,wy,g)" style="shape=process;whiteSpace=wrap;html=1;backgroundOutline=1;" vertex="1" parent="1">
          <mxGeometry x="1330" y="170" width="80" height="40" as="geometry" />
        </mxCell>
        <mxCell id="0QM8M_4ENNdiWnbFHsw6-63" value="Window.Clear" style="shape=process;whiteSpace=wrap;html=1;backgroundOutline=1;" vertex="1" parent="1">
          <mxGeometry x="1330" y="120" width="80" height="40" as="geometry" />
        </mxCell>
        <mxCell id="0QM8M_4ENNdiWnbFHsw6-64" value="Redraw" style="shape=process;whiteSpace=wrap;html=1;backgroundOutline=1;" vertex="1" parent="1">
          <mxGeometry x="1330" y="220" width="80" height="40" as="geometry" />
        </mxCell>
        <mxCell id="0QM8M_4ENNdiWnbFHsw6-65" value="" style="endArrow=classic;html=1;rounded=0;entryX=0.5;entryY=0;entryDx=0;entryDy=0;" edge="1" parent="1" target="0QM8M_4ENNdiWnbFHsw6-62">
          <mxGeometry width="50" height="50" relative="1" as="geometry">
            <mxPoint x="1370" y="160" as="sourcePoint" />
            <mxPoint x="1420" y="110" as="targetPoint" />
          </mxGeometry>
        </mxCell>
        <mxCell id="0QM8M_4ENNdiWnbFHsw6-66" value="" style="endArrow=classic;html=1;rounded=0;entryX=0.5;entryY=0;entryDx=0;entryDy=0;" edge="1" parent="1" target="0QM8M_4ENNdiWnbFHsw6-64">
          <mxGeometry width="50" height="50" relative="1" as="geometry">
            <mxPoint x="1370" y="210" as="sourcePoint" />
            <mxPoint x="1420" y="160" as="targetPoint" />
          </mxGeometry>
        </mxCell>
        <mxCell id="0QM8M_4ENNdiWnbFHsw6-69" value="" style="endArrow=none;html=1;rounded=0;exitX=0.5;exitY=1;exitDx=0;exitDy=0;" edge="1" parent="1" source="0QM8M_4ENNdiWnbFHsw6-64">
          <mxGeometry width="50" height="50" relative="1" as="geometry">
            <mxPoint x="1330" y="310" as="sourcePoint" />
            <mxPoint x="409.58" y="240" as="targetPoint" />
            <Array as="points">
              <mxPoint x="1370" y="280" />
              <mxPoint x="410" y="280" />
            </Array>
          </mxGeometry>
        </mxCell>
        <mxCell id="0QM8M_4ENNdiWnbFHsw6-70" value="" style="endArrow=classic;html=1;rounded=0;" edge="1" parent="1">
          <mxGeometry width="50" height="50" relative="1" as="geometry">
            <mxPoint x="410" y="280" as="sourcePoint" />
            <mxPoint x="410" y="310" as="targetPoint" />
          </mxGeometry>
        </mxCell>
        <mxCell id="0QM8M_4ENNdiWnbFHsw6-71" value="Конец" style="ellipse;whiteSpace=wrap;html=1;" vertex="1" parent="1">
          <mxGeometry x="370" y="310" width="80" height="40" as="geometry" />
        </mxCell>
        <mxCell id="0QM8M_4ENNdiWnbFHsw6-73" value="" style="strokeWidth=2;html=1;shape=mxgraph.flowchart.annotation_2;align=left;labelPosition=right;pointerEvents=1;" vertex="1" parent="1">
          <mxGeometry x="1410" y="170" width="20" height="40" as="geometry" />
        </mxCell>
        <mxCell id="0QM8M_4ENNdiWnbFHsw6-74" value="Процедура ris рисует линию с начальной точкой и конечной точкой" style="text;html=1;strokeColor=none;fillColor=none;align=center;verticalAlign=middle;whiteSpace=wrap;rounded=0;" vertex="1" parent="1">
          <mxGeometry x="1430" y="175" width="160" height="30" as="geometry" />
        </mxCell>
        <mxCell id="0QM8M_4ENNdiWnbFHsw6-75" value="VK_A" style="text;html=1;strokeColor=none;fillColor=none;align=center;verticalAlign=middle;whiteSpace=wrap;rounded=0;" vertex="1" parent="1">
          <mxGeometry x="540" y="160" width="50" height="20" as="geometry" />
        </mxCell>
        <mxCell id="0QM8M_4ENNdiWnbFHsw6-76" value="VK_Z" style="text;html=1;strokeColor=none;fillColor=none;align=center;verticalAlign=middle;whiteSpace=wrap;rounded=0;" vertex="1" parent="1">
          <mxGeometry x="740" y="160" width="50" height="20" as="geometry" />
        </mxCell>
        <mxCell id="0QM8M_4ENNdiWnbFHsw6-77" value="VK_S" style="text;html=1;strokeColor=none;fillColor=none;align=center;verticalAlign=middle;whiteSpace=wrap;rounded=0;" vertex="1" parent="1">
          <mxGeometry x="940" y="160" width="50" height="20" as="geometry" />
        </mxCell>
        <mxCell id="0QM8M_4ENNdiWnbFHsw6-78" value="VK_X" style="text;html=1;strokeColor=none;fillColor=none;align=center;verticalAlign=middle;whiteSpace=wrap;rounded=0;" vertex="1" parent="1">
          <mxGeometry x="1140" y="160" width="50" height="20" as="geometry" />
        </mxCell>
        <mxCell id="0QM8M_4ENNdiWnbFHsw6-79" value="VK_Escape" style="text;html=1;strokeColor=none;fillColor=none;align=center;verticalAlign=middle;whiteSpace=wrap;rounded=0;" vertex="1" parent="1">
          <mxGeometry x="394" y="160" width="40" height="20" as="geometry" />
        </mxCell>
        <mxCell id="0QM8M_4ENNdiWnbFHsw6-80" value="VK_Up" style="text;html=1;strokeColor=none;fillColor=none;align=center;verticalAlign=middle;whiteSpace=wrap;rounded=0;" vertex="1" parent="1">
          <mxGeometry x="130" y="160" width="49" height="20" as="geometry" />
        </mxCell>
        <mxCell id="0QM8M_4ENNdiWnbFHsw6-81" value="VK_Left" style="text;html=1;strokeColor=none;fillColor=none;align=center;verticalAlign=middle;whiteSpace=wrap;rounded=0;" vertex="1" parent="1">
          <mxGeometry x="219" y="160" width="40" height="20" as="geometry" />
        </mxCell>
        <mxCell id="0QM8M_4ENNdiWnbFHsw6-83" value="VK_Right" style="text;html=1;strokeColor=none;fillColor=none;align=center;verticalAlign=middle;whiteSpace=wrap;rounded=0;" vertex="1" parent="1">
          <mxGeometry x="310" y="160" width="40" height="20" as="geometry" />
        </mxCell>
        <mxCell id="0QM8M_4ENNdiWnbFHsw6-88" value="VK_Down" style="text;html=1;strokeColor=none;fillColor=none;align=center;verticalAlign=middle;whiteSpace=wrap;rounded=0;" vertex="1" parent="1">
          <mxGeometry x="40" y="160" width="40" height="20" as="geometry" />
        </mxCell>
      </root>
    </mxGraphModel>
  </diagram>
</mxfile>
